<?xml version="1.0" encoding="utf-8"?>
<!-- Generator: Adobe Illustrator 20.0.0, SVG Export Plug-In . SVG Version: 6.00 Build 0)  -->
<svg version="1.1" id="Layer_1" xmlns="http://www.w3.org/2000/svg" xmlns:xlink="http://www.w3.org/1999/xlink" x="0px" y="0px"
	 viewBox="0 0 70 70" style="enable-background:new 0 0 100 100;" xml:space="preserve">
<style type="text/css">
	.st0{fill:#FFFFFF;}
</style>
<path class="st0" d="M15.635,7.704c-0.188,0.202-0.178,0.518,0.023,0.707l2.661,2.486c0.017,0.016,0.038,0.022,0.056,0.035l0.312,6.781
		l3.895,1.145c-1.289,2.17-2.249,4.704-2.249,7.475c0,3.964,3.318,7.319,6.733,10.561l-4.519,1.568l0.511,6.862l-3.723-0.651
		c-0.269-0.047-0.531,0.133-0.578,0.407c-0.048,0.272,0.134,0.531,0.406,0.579l3,0.524l-3.351,1.353
		c-0.256,0.104-0.38,0.395-0.276,0.651C18.615,48.382,18.803,48.5,19,48.5c0.062,0,0.126-0.012,0.188-0.036l3.381-1.365
		l-1.901,2.709c-0.159,0.226-0.104,0.538,0.122,0.696c0.087,0.062,0.188,0.091,0.287,0.091c0.157,0,0.312-0.074,0.409-0.213
		l2.578-3.673c0-0.001,0.001-0.002,0.001-0.002l0.076-0.097l0.001-0.079l0.003-0.2l0.105-6.539l6.321,0.51
		c2.183,2.282,3.846,4.595,3.846,7.115c0,7.333-8.25,13.833-8.25,13.833S39.833,57.833,39.833,45c0-3.897-2.093-6.467-4.497-8.782
		l0.66-4.676c1.26,0.134,3.586,0.256,4.801,0.255c0.446,0,1.603-0.174,1.765-0.198l2.989-0.304c0.274-0.028,0.475-0.273,0.446-0.548
		c-0.027-0.275-0.281-0.472-0.548-0.447l-2.991,0.304l1.947-2.685c0.161-0.224,0.111-0.536-0.111-0.698
		c-0.223-0.162-0.535-0.114-0.699,0.111l-1.907,2.63l-0.063-3.083c-0.005-0.275-0.232-0.532-0.51-0.519
		c-0.276,0.005-0.495,0.176-0.49,0.452l0.074,3.72c-1.395-0.14-3.619-0.361-5.192-0.529l-0.372-0.036L32.3,33.38
		c-2.207-2.141-4.041-4.447-4.041-7.797c0-0.844,0.05-1.61,0.124-2.334c0.032-0.317,0.071-0.622,0.115-0.917l1.691,1.603l7.106-2.26
		l2.638,1.118c0.064,0.027,0.128,0.04,0.194,0.04c0.194,0,0.379-0.114,0.459-0.305c0.108-0.254-0.011-0.547-0.265-0.655
		l-1.886-0.798l2.82-1.292c0.251-0.115,0.361-0.412,0.246-0.663c-0.115-0.252-0.414-0.361-0.662-0.247l-2.609,1.195l0.882-1.871
		c0.118-0.25,0.011-0.548-0.239-0.666c-0.248-0.119-0.441-0.01-0.558,0.239L37,20.786v0.002l-6.231,1.945l-1.504-3.491
		c0.551-1.503,1.237-2.542,1.824-3.218c1.664,0.409,3.755,0.054,5.645-1.127c3.09-1.931,4.458-5.316,3.055-7.56
		c-1.402-2.244-5.044-2.498-8.134-0.567c-2.34,1.462-3.689,3.758-3.599,5.76c-1.011,0.842-2.411,2.158-3.753,3.842l-4.656,0.414
		l-0.288-6.23l2.589-2.756c0.189-0.201,0.18-0.518-0.021-0.707c-0.201-0.188-0.517-0.18-0.707,0.022l-2.093,2.228l-0.128-3.251
		c-0.013-0.276-0.252-0.477-0.521-0.448c-0.276,0.011-0.49,0.306-0.479,0.582l0.126,3.117L16.342,7.68
		C16.14,7.492,15.824,7.502,15.635,7.704z M36.717,10.07c0.581-0.363,1.265-0.315,1.529,0.107s0.006,1.058-0.574,1.421
		c-0.581,0.363-1.265,0.315-1.529-0.107S36.136,10.432,36.717,10.07z M34.717,7.07c0.581-0.363,1.265-0.315,1.529,0.107
		s0.006,1.058-0.574,1.421c-0.581,0.363-1.265,0.315-1.529-0.107S34.136,7.432,34.717,7.07z"/>
</svg>

